<svg width="15" height="15" viewBox="0 0 15 15" fill="none" xmlns="http://www.w3.org/2000/svg">
<path d="M13.0521 5.14428L9.44192 4.626L7.82809 1.39418C7.78402 1.30569 7.7115 1.23406 7.62192 1.19052C7.39727 1.08097 7.12427 1.17226 7.01194 1.39418L5.39811 4.626L1.78797 5.14428C1.68844 5.15832 1.59744 5.20467 1.52777 5.2749C1.44354 5.36041 1.39712 5.47547 1.39872 5.59477C1.40032 5.71407 1.4498 5.82787 1.5363 5.91115L4.14828 8.42667L3.53119 11.9787C3.51672 12.0614 3.52597 12.1463 3.55791 12.224C3.58984 12.3017 3.64318 12.369 3.71186 12.4183C3.78055 12.4676 3.86184 12.4969 3.94652 12.5028C4.03119 12.5088 4.11587 12.4912 4.19094 12.4521L7.42002 10.775L10.6491 12.4521C10.7372 12.4984 10.8396 12.5139 10.9377 12.497C11.1851 12.4549 11.3515 12.2231 11.3088 11.9787L10.6917 8.42667L13.3037 5.91115C13.3748 5.84233 13.4217 5.75244 13.436 5.65412C13.4744 5.40833 13.3009 5.18079 13.0521 5.14428Z" fill="#FEA250"/>
</svg>
